<svg xmlns="http://www.w3.org/2000/svg" viewBox="0 0 901 237"><defs><style>.cls-1{fill:#66d0ff;}.cls-2{fill:#f43838;}</style></defs><title>BlackLogo</title><g id="Layer_2" data-name="Layer 2"><g id="Layer_4" data-name="Layer 4"><path class="cls-1" d="M104.59,86.65q0-8.62-4.29-14.28a30.79,30.79,0,0,0-10.19-8.76,135.58,135.58,0,0,0-15.74-6.73Q64.53,53.27,62,51a6.54,6.54,0,0,1-2.54-4.82q0-3.3,3.53-5.3c2.35-1.34,5.51-2,9.49-2q10.47,0,28.12,7.93V37H39.43a22.52,22.52,0,0,0-2.7,11.07q0,8.82,4.22,14.47a29.52,29.52,0,0,0,10,8.7,125.66,125.66,0,0,0,15.74,6.6q9.93,3.55,12.54,6a7.26,7.26,0,0,1,2.6,5.27,7.39,7.39,0,0,1-1,3.86h23A28.07,28.07,0,0,0,104.59,86.65Z"/><path class="cls-1" d="M38.57,105a65.28,65.28,0,0,0,32,8.57q15.3,0,24.66-7.3A24.24,24.24,0,0,0,101.58,99h-63Z"/><path class="cls-1" d="M100.59,29.46q-15.81-6.85-30-6.85-15.42,0-24.63,7-.87.68-1.65,1.38h56.31Z"/><path class="cls-1" d="M38.57,85.89V93H50.71A101,101,0,0,1,38.57,85.89Z"/><path class="cls-1" d="M106.59,31H50.28a22.63,22.63,0,0,0-4.85,6h61.16Z"/><path class="cls-1" d="M76.87,93c-1.73,2.87-5.73,4.32-12,4.32a39,39,0,0,1-14.54-2.73q-1.73-.69-3.6-1.59H34.57v6h63a22.75,22.75,0,0,0,2.3-6Z"/><rect class="cls-1" x="189.88" y="99" width="22.09" height="13.43"/><rect class="cls-1" x="123.61" y="99" width="22.09" height="13.43"/><rect class="cls-1" x="189.88" y="23.75" width="22.09" height="7.25"/><polygon class="cls-1" points="189.88 37 189.88 59.36 145.7 59.36 145.7 37 123.61 37 123.61 93 145.7 93 145.7 76.56 189.88 76.56 189.88 93 211.97 93 211.97 37 189.88 37"/><rect class="cls-1" x="123.61" y="23.75" width="22.09" height="7.25"/><rect class="cls-1" x="195.88" y="31" width="22.09" height="6"/><rect class="cls-1" x="129.61" y="31" width="22.09" height="6"/><rect class="cls-1" x="185.88" y="93" width="22.09" height="6"/><rect class="cls-1" x="119.61" y="93" width="22.09" height="6"/><polygon class="cls-1" points="303.85 112.43 327.6 112.43 321.64 99 298.25 99 303.85 112.43"/><polygon class="cls-1" points="288.21 23.75 262.62 23.75 259.69 31 291.44 31 288.21 23.75"/><polygon class="cls-1" points="226.8 112.43 250.21 112.43 255.28 99 232.22 99 226.8 112.43"/><path class="cls-1" d="M257.27,37,234.65,93H319L294.1,37Zm18.44,8,14.37,34.47h-27.4Z"/><polygon class="cls-1" points="300.1 37 297.44 31 265.69 31 263.27 37 300.1 37"/><polygon class="cls-1" points="230.65 93 228.22 99 251.28 99 252.83 94.91 292.54 94.91 294.25 99 317.64 99 314.97 93 230.65 93"/><rect class="cls-1" x="352.59" y="99" width="22.09" height="13.43"/><polygon class="cls-1" points="406.8 40 406.8 37 320.47 37 320.47 40 352.59 40 352.59 93 374.68 93 374.68 40 406.8 40"/><rect class="cls-1" x="320.47" y="23.75" width="86.33" height="7.25"/><rect class="cls-1" x="326.47" y="31" width="86.33" height="6"/><rect class="cls-1" x="348.59" y="93" width="22.09" height="6"/><rect class="cls-1" x="418.52" y="23.75" width="86.33" height="7.25"/><polygon class="cls-1" points="504.85 40 504.85 37 418.52 37 418.52 40 450.64 40 450.64 93 472.73 93 472.73 40 504.85 40"/><rect class="cls-1" x="450.64" y="99" width="22.09" height="13.43"/><rect class="cls-1" x="424.52" y="31" width="86.33" height="6"/><rect class="cls-1" x="446.64" y="93" width="22.09" height="6"/><rect class="cls-1" x="523.11" y="99" width="65.38" height="13.43"/><polygon class="cls-1" points="585.64 74.85 585.64 58.6 545.2 58.6 545.2 40 587.6 40 587.6 37 523.11 37 523.11 93 545.2 93 545.2 74.85 585.64 74.85"/><rect class="cls-1" x="523.11" y="23.75" width="64.49" height="7.25"/><rect class="cls-1" x="529.11" y="31" width="64.49" height="6"/><polygon class="cls-1" points="541.2 96.18 541.2 93 519.11 93 519.11 99 584.49 99 584.49 96.18 541.2 96.18"/><rect class="cls-1" x="609.93" y="99" width="22.09" height="13.43"/><path class="cls-1" d="M649.54,23.75H609.93V31h60.32Q662.24,23.76,649.54,23.75Z"/><path class="cls-1" d="M663.38,112.43h24.24c-2-4.32-4.14-8.81-6.28-13.43H657.25Q661.51,108.65,663.38,112.43Z"/><path class="cls-1" d="M663.31,70.94q15.24-7,15.23-21.69A23.4,23.4,0,0,0,675.25,37H609.93V93H632V76.44h6.34a12,12,0,0,1,8.22,3.49Q650,83,654.59,93h24c-.86-1.88-1.72-3.77-2.59-5.7Q670,74,663.31,70.94ZM652.55,57.55q-3.27,2.64-8.85,2.64H632V40h11.17q12.63,0,12.63,10A9.09,9.09,0,0,1,652.55,57.55Z"/><path class="cls-1" d="M681.25,37a26.51,26.51,0,0,0-4.77-5.8l-.23-.2H615.93v6Z"/><path class="cls-1" d="M650.59,93q.6,1.31,1.23,2.73c.5,1.14,1,2.23,1.43,3.27h24.09c-.91-2-1.82-4-2.75-6Z"/><rect class="cls-1" x="605.93" y="93" width="22.09" height="6"/><rect class="cls-1" x="702.71" y="99" width="65.38" height="13.43"/><polygon class="cls-1" points="765.23 74.85 765.23 58.6 724.8 58.6 724.8 40 767.2 40 767.2 37 702.71 37 702.71 93 724.8 93 724.8 74.85 765.23 74.85"/><rect class="cls-1" x="702.71" y="23.75" width="64.49" height="7.25"/><rect class="cls-1" x="708.71" y="31" width="64.49" height="6"/><polygon class="cls-1" points="720.8 96.18 720.8 93 698.71 93 698.71 99 764.09 99 764.09 96.18 720.8 96.18"/><path class="cls-1" d="M789.4,93h22.09V40h14.15q14.1,0,21.62,7.52t7.52,20.6q0,12.63-7.43,20.34A22.5,22.5,0,0,1,841.17,93H870.8q6.69-10.17,6.7-24.75,0-19-12.32-31.25H789.4Z"/><path class="cls-1" d="M789.4,112.43H826q24.76,0,38.12-11.78c.61-.53,1.19-1.09,1.76-1.65H789.4Z"/><path class="cls-1" d="M789.4,23.75V31h68.18q-11.77-7.24-29.08-7.25Z"/><path class="cls-1" d="M795.4,37h75.78c-.28-.28-.56-.57-.85-.84A41.74,41.74,0,0,0,863.58,31H795.4Z"/><path class="cls-1" d="M821.9,96.18H807.49V93H785.4v6h76.5a37.26,37.26,0,0,0,4.9-6H837.17A33.66,33.66,0,0,1,821.9,96.18Z"/><path class="cls-1" d="M236.4,214.43h24.24c-1-2.11-2-4.25-3-6.43H233.4C234.67,210.81,235.68,213,236.4,214.43Z"/><path class="cls-1" d="M205,178.44h6.35a12,12,0,0,1,8.22,3.49q3.84,3.48,9.23,15.8,1,2.28,1.88,4.27h24.1Q252,195.83,249,189.3q-6-13.32-12.7-16.36,15.24-7,15.24-21.69c0-.76,0-1.51-.1-2.25h-23a12.48,12.48,0,0,1,.35,3,9.09,9.09,0,0,1-3.27,7.52q-3.27,2.64-8.85,2.64H205V149H183v53H205Z"/><path class="cls-1" d="M205,142h11.17a19.53,19.53,0,0,1,6.71,1h27.25a24.7,24.7,0,0,0-6.66-9.8q-8.07-7.45-20.95-7.45H183V143H205Z"/><rect class="cls-1" x="182.95" y="208" width="22.09" height="6.43"/><rect class="cls-1" x="188.95" y="143" width="22.09" height="6"/><path class="cls-1" d="M234.49,149h23a23.33,23.33,0,0,0-1.3-6H228.92A8.27,8.27,0,0,1,234.49,149Z"/><rect class="cls-1" x="176.95" y="202" width="22.09" height="6"/><path class="cls-1" d="M224.72,202q1.5,3.39,2.68,6h24.22q-1.4-3-2.8-6Z"/><rect class="cls-1" x="275.73" y="208" width="65.38" height="6.43"/><polygon class="cls-1" points="297.82 142 340.22 142 340.22 125.75 275.73 125.75 275.73 143 297.82 143 297.82 142"/><polygon class="cls-1" points="341.11 202 341.11 198.18 297.82 198.18 297.82 176.85 338.25 176.85 338.25 160.6 297.82 160.6 297.82 149 275.73 149 275.73 202 341.11 202"/><rect class="cls-1" x="281.73" y="143" width="22.09" height="6"/><rect class="cls-1" x="269.73" y="202" width="65.38" height="6"/><polygon class="cls-1" points="414.44 125.75 388.85 125.75 381.88 143 422.1 143 414.44 125.75"/><polygon class="cls-1" points="353.02 214.43 376.43 214.43 378.86 208 355.62 208 353.02 214.43"/><polygon class="cls-1" points="430.07 214.43 453.83 214.43 450.97 208 427.39 208 430.07 214.43"/><polygon class="cls-1" points="381.13 202 383.06 196.91 422.77 196.91 424.89 202 448.31 202 424.77 149 402.79 149 416.31 181.42 388.91 181.42 401.16 149 379.45 149 358.05 202 381.13 202"/><polygon class="cls-1" points="407.16 149 407.93 146.95 408.79 149 430.77 149 428.1 143 387.88 143 385.45 149 407.16 149"/><polygon class="cls-1" points="352.05 202 349.62 208 372.86 208 375.13 202 352.05 202"/><polygon class="cls-1" points="418.89 202 421.39 208 444.97 208 442.31 202 418.89 202"/><polygon class="cls-1" points="536.2 202 536.2 198.18 490.69 198.18 490.69 149 468.6 149 468.6 202 536.2 202"/><rect class="cls-1" x="468.6" y="208" width="67.6" height="6.43"/><rect class="cls-1" x="468.6" y="125.75" width="22.09" height="17.25"/><rect class="cls-1" x="474.6" y="143" width="22.09" height="6"/><rect class="cls-1" x="462.6" y="202" width="67.6" height="6"/><polygon class="cls-1" points="572.31 125.75 553.13 125.75 553.13 143 587.27 143 572.31 125.75"/><rect class="cls-1" x="626.44" y="208" width="22.09" height="6.43"/><rect class="cls-1" x="553.13" y="208" width="22.09" height="6.43"/><polygon class="cls-1" points="575.22 202 575.22 159.07 599.17 186.88 602.49 186.88 626.44 159.07 626.44 202 648.53 202 648.53 149 609.18 149 600.83 158.63 592.48 149 553.13 149 553.13 202 575.22 202"/><polygon class="cls-1" points="648.53 125.75 629.33 125.75 614.38 143 648.53 143 648.53 125.75"/><polygon class="cls-1" points="654.53 149 654.53 143 620.38 143 615.18 149 654.53 149"/><polygon class="cls-1" points="598.48 149 593.27 143 559.13 143 559.13 149 598.48 149"/><rect class="cls-1" x="547.13" y="202" width="22.09" height="6"/><rect class="cls-1" x="620.44" y="202" width="22.09" height="6"/><path class="cls-1" d="M695.26,142.86c2.35-1.34,5.51-2,9.49-2A47.19,47.19,0,0,1,717.56,143h15.31V131.46q-15.81-6.86-30-6.85-15.44,0-24.63,7A22.35,22.35,0,0,0,670,143h25Z"/><path class="cls-1" d="M669,150.07q0,8.82,4.22,14.47a29.71,29.71,0,0,0,10,8.7,124.81,124.81,0,0,0,15.74,6.6q9.94,3.56,12.54,6a7.25,7.25,0,0,1,2.61,5.27q0,8.18-13,8.18a38.89,38.89,0,0,1-14.53-2.73,87,87,0,0,1-15.75-8.7V202h62.42a24.48,24.48,0,0,0,3.6-13.34q0-8.64-4.28-14.29a30.89,30.89,0,0,0-10.19-8.76,137.11,137.11,0,0,0-15.74-6.73q-9.84-3.62-12.38-5.9a7,7,0,0,1-2.46-4H669C669,149.35,669,149.71,669,150.07Z"/><path class="cls-1" d="M702.85,215.57q15.28,0,24.66-7.3l.33-.27H672.72A64.74,64.74,0,0,0,702.85,215.57Z"/><path class="cls-1" d="M697.82,149a4.78,4.78,0,0,1-.08-.84c0-2.13,1.1-3.84,3.29-5.16H676a23.24,23.24,0,0,0-1,6Z"/><path class="cls-1" d="M738.87,148.79V143H723.56A118.92,118.92,0,0,1,738.87,148.79Z"/><path class="cls-1" d="M664.85,207c.63.34,1.25.68,1.87,1h55.12a24.53,24.53,0,0,0,5.43-6H664.85Z"/><path class="cls-1" d="M131.94,143A63.6,63.6,0,0,0,101,135H49.33A27.36,27.36,0,0,1,22,107.67V99H14v8.67A35.37,35.37,0,0,0,49.33,143h82.61Z"/><path class="cls-1" d="M750,192v9.67c0,.11,0,.22,0,.33h8c0-.11,0-.22,0-.33V192a55.89,55.89,0,0,1,20.17-43H766.64A63.71,63.71,0,0,0,750,192Z"/><path class="cls-1" d="M722.67,229H192.33a27.36,27.36,0,0,1-26.58-21h-8.17a35.38,35.38,0,0,0,34.75,29H722.67a35.38,35.38,0,0,0,34.75-29h-8.17A27.36,27.36,0,0,1,722.67,229Z"/><rect class="cls-1" x="887" y="37" width="8" height="56"/><path class="cls-1" d="M165,201.67V199a63.89,63.89,0,0,0-24.12-50H126.17A56,56,0,0,1,157,199v2.67c0,.11,0,.22,0,.33h8C165,201.89,165,201.78,165,201.67Z"/><rect class="cls-1" x="14" y="37" width="8" height="56"/><path class="cls-1" d="M887,100.67A27.36,27.36,0,0,1,859.67,128H814a63.72,63.72,0,0,0-41.11,15h14A55.69,55.69,0,0,1,814,136h45.67A35.37,35.37,0,0,0,895,100.67V99h-8Z"/><path class="cls-1" d="M49.33,8H859.67a27.36,27.36,0,0,1,27,23h8.08A35.38,35.38,0,0,0,859.67,0H49.33A35.38,35.38,0,0,0,14.27,31h8.08A27.36,27.36,0,0,1,49.33,8Z"/><path class="cls-1" d="M28,35.33A26.82,26.82,0,0,1,28.35,31H20.27A36.34,36.34,0,0,0,20,35.33V37h8Z"/><path class="cls-1" d="M893,35.33V37h8V35.33a36.34,36.34,0,0,0-.27-4.33h-8.08A26.82,26.82,0,0,1,893,35.33Z"/><rect class="cls-1" x="883" y="93" width="8" height="6"/><rect class="cls-1" x="10" y="93" width="8" height="6"/><path class="cls-1" d="M766.64,149h11.53a57.26,57.26,0,0,1,8.76-6h-14A64.4,64.4,0,0,0,766.64,149Z"/><path class="cls-1" d="M137.94,143H107a55.6,55.6,0,0,1,25.17,6h14.71A64.31,64.31,0,0,0,137.94,143Z"/><path class="cls-1" d="M743.25,208h8.17a34.86,34.86,0,0,0,.57-6h-8A27,27,0,0,1,743.25,208Z"/><path class="cls-1" d="M159,202h-8a34.86,34.86,0,0,0,.57,6h8.17A27,27,0,0,1,159,202Z"/><path class="cls-2" d="M94.59,86.65q0-8.62-4.29-14.28a30.79,30.79,0,0,0-10.19-8.76,135.58,135.58,0,0,0-15.74-6.73Q54.53,53.27,52,51a6.54,6.54,0,0,1-2.54-4.82q0-3.3,3.53-5.3c2.35-1.34,5.51-2,9.49-2q10.47,0,28.12,7.93V37H29.43a22.52,22.52,0,0,0-2.7,11.07q0,8.82,4.22,14.47a29.52,29.52,0,0,0,10,8.7,125.66,125.66,0,0,0,15.74,6.6q9.93,3.55,12.54,6a7.26,7.26,0,0,1,2.6,5.27,7.39,7.39,0,0,1-1,3.86h23A28.07,28.07,0,0,0,94.59,86.65Z"/><path class="cls-2" d="M28.57,105a65.28,65.28,0,0,0,32,8.57q15.3,0,24.66-7.3A24.24,24.24,0,0,0,91.58,99h-63Z"/><path class="cls-2" d="M90.59,29.46q-15.81-6.85-30-6.85-15.42,0-24.63,7-.87.68-1.65,1.38H90.59Z"/><path class="cls-2" d="M28.57,85.89V93H40.71A101,101,0,0,1,28.57,85.89Z"/><path class="cls-2" d="M96.59,31H40.28a22.63,22.63,0,0,0-4.85,6H96.59Z"/><path class="cls-2" d="M66.87,93c-1.73,2.87-5.73,4.32-12,4.32a39,39,0,0,1-14.54-2.73q-1.73-.69-3.6-1.59H24.57v6h63a22.75,22.75,0,0,0,2.3-6Z"/><rect class="cls-2" x="179.88" y="99" width="22.09" height="13.43"/><rect class="cls-2" x="113.61" y="99" width="22.09" height="13.43"/><rect class="cls-2" x="179.88" y="23.75" width="22.09" height="7.25"/><polygon class="cls-2" points="179.88 37 179.88 59.36 135.7 59.36 135.7 37 113.61 37 113.61 93 135.7 93 135.7 76.56 179.88 76.56 179.88 93 201.97 93 201.97 37 179.88 37"/><rect class="cls-2" x="113.61" y="23.75" width="22.09" height="7.25"/><rect class="cls-2" x="185.88" y="31" width="22.09" height="6"/><rect class="cls-2" x="119.61" y="31" width="22.09" height="6"/><rect class="cls-2" x="175.88" y="93" width="22.09" height="6"/><rect class="cls-2" x="109.61" y="93" width="22.09" height="6"/><polygon class="cls-2" points="293.85 112.43 317.6 112.43 311.64 99 288.25 99 293.85 112.43"/><polygon class="cls-2" points="278.21 23.75 252.62 23.75 249.69 31 281.44 31 278.21 23.75"/><polygon class="cls-2" points="216.8 112.43 240.21 112.43 245.28 99 222.22 99 216.8 112.43"/><path class="cls-2" d="M247.27,37,224.65,93H309L284.1,37Zm18.44,8,14.37,34.47h-27.4Z"/><polygon class="cls-2" points="290.1 37 287.44 31 255.69 31 253.27 37 290.1 37"/><polygon class="cls-2" points="220.65 93 218.22 99 241.28 99 242.83 94.91 282.54 94.91 284.25 99 307.64 99 304.97 93 220.65 93"/><rect class="cls-2" x="342.59" y="99" width="22.09" height="13.43"/><polygon class="cls-2" points="396.8 40 396.8 37 310.47 37 310.47 40 342.59 40 342.59 93 364.68 93 364.68 40 396.8 40"/><rect class="cls-2" x="310.47" y="23.75" width="86.33" height="7.25"/><rect class="cls-2" x="316.47" y="31" width="86.33" height="6"/><rect class="cls-2" x="338.59" y="93" width="22.09" height="6"/><rect class="cls-2" x="408.52" y="23.75" width="86.33" height="7.25"/><polygon class="cls-2" points="494.85 40 494.85 37 408.52 37 408.52 40 440.64 40 440.64 93 462.73 93 462.73 40 494.85 40"/><rect class="cls-2" x="440.64" y="99" width="22.09" height="13.43"/><rect class="cls-2" x="414.52" y="31" width="86.33" height="6"/><rect class="cls-2" x="436.64" y="93" width="22.09" height="6"/><rect class="cls-2" x="513.11" y="99" width="65.38" height="13.43"/><polygon class="cls-2" points="575.64 74.85 575.64 58.6 535.2 58.6 535.2 40 577.6 40 577.6 37 513.11 37 513.11 93 535.2 93 535.2 74.85 575.64 74.85"/><rect class="cls-2" x="513.11" y="23.75" width="64.49" height="7.25"/><rect class="cls-2" x="519.11" y="31" width="64.49" height="6"/><polygon class="cls-2" points="531.2 96.18 531.2 93 509.11 93 509.11 99 574.49 99 574.49 96.18 531.2 96.18"/><rect class="cls-2" x="599.93" y="99" width="22.09" height="13.43"/><path class="cls-2" d="M639.54,23.75H599.93V31h60.32Q652.24,23.76,639.54,23.75Z"/><path class="cls-2" d="M653.38,112.43h24.24c-2-4.32-4.14-8.81-6.28-13.43H647.25Q651.51,108.65,653.38,112.43Z"/><path class="cls-2" d="M653.31,70.94q15.24-7,15.23-21.69A23.4,23.4,0,0,0,665.25,37H599.93V93H622V76.44h6.34a12,12,0,0,1,8.22,3.49Q640,83,644.59,93h24c-.86-1.88-1.72-3.77-2.59-5.7Q660,74,653.31,70.94ZM642.55,57.55q-3.27,2.64-8.85,2.64H622V40h11.17q12.63,0,12.63,10A9.09,9.09,0,0,1,642.55,57.55Z"/><path class="cls-2" d="M671.25,37a26.51,26.51,0,0,0-4.77-5.8l-.23-.2H605.93v6Z"/><path class="cls-2" d="M640.59,93q.6,1.31,1.23,2.73c.5,1.14,1,2.23,1.43,3.27h24.09c-.91-2-1.82-4-2.75-6Z"/><rect class="cls-2" x="595.93" y="93" width="22.09" height="6"/><rect class="cls-2" x="692.71" y="99" width="65.38" height="13.43"/><polygon class="cls-2" points="755.23 74.85 755.23 58.6 714.8 58.6 714.8 40 757.2 40 757.2 37 692.71 37 692.71 93 714.8 93 714.8 74.85 755.23 74.85"/><rect class="cls-2" x="692.71" y="23.75" width="64.49" height="7.25"/><rect class="cls-2" x="698.71" y="31" width="64.49" height="6"/><polygon class="cls-2" points="710.8 96.18 710.8 93 688.71 93 688.71 99 754.09 99 754.09 96.18 710.8 96.18"/><path class="cls-2" d="M779.4,93h22.09V40h14.15q14.1,0,21.62,7.52t7.52,20.6q0,12.63-7.43,20.34A22.5,22.5,0,0,1,831.17,93H860.8q6.69-10.17,6.7-24.75,0-19-12.32-31.25H779.4Z"/><path class="cls-2" d="M779.4,112.43H816q24.76,0,38.12-11.78c.61-.53,1.19-1.09,1.76-1.65H779.4Z"/><path class="cls-2" d="M779.4,23.75V31h68.18q-11.77-7.24-29.08-7.25Z"/><path class="cls-2" d="M785.4,37h75.78c-.28-.28-.56-.57-.85-.84A41.74,41.74,0,0,0,853.58,31H785.4Z"/><path class="cls-2" d="M811.9,96.18H797.49V93H775.4v6h76.5a37.26,37.26,0,0,0,4.9-6H827.17A33.66,33.66,0,0,1,811.9,96.18Z"/><path class="cls-2" d="M226.4,214.43h24.24c-1-2.11-2-4.25-3-6.43H223.4C224.67,210.81,225.68,213,226.4,214.43Z"/><path class="cls-2" d="M195,178.44h6.35a12,12,0,0,1,8.22,3.49q3.84,3.48,9.23,15.8,1,2.28,1.88,4.27h24.1Q242,195.83,239,189.3q-6-13.32-12.7-16.36,15.24-7,15.24-21.69c0-.76,0-1.51-.1-2.25h-23a12.48,12.48,0,0,1,.35,3,9.09,9.09,0,0,1-3.27,7.52q-3.27,2.64-8.85,2.64H195V149H173v53H195Z"/><path class="cls-2" d="M195,142h11.17a19.53,19.53,0,0,1,6.71,1h27.25a24.7,24.7,0,0,0-6.66-9.8q-8.07-7.45-20.95-7.45H173V143H195Z"/><rect class="cls-2" x="172.95" y="208" width="22.09" height="6.43"/><rect class="cls-2" x="178.95" y="143" width="22.09" height="6"/><path class="cls-2" d="M224.49,149h23a23.33,23.33,0,0,0-1.3-6H218.92A8.27,8.27,0,0,1,224.49,149Z"/><rect class="cls-2" x="166.95" y="202" width="22.09" height="6"/><path class="cls-2" d="M214.72,202q1.5,3.39,2.68,6h24.22q-1.4-3-2.8-6Z"/><rect class="cls-2" x="265.73" y="208" width="65.38" height="6.43"/><polygon class="cls-2" points="287.82 142 330.22 142 330.22 125.75 265.73 125.75 265.73 143 287.82 143 287.82 142"/><polygon class="cls-2" points="331.11 202 331.11 198.18 287.82 198.18 287.82 176.85 328.25 176.85 328.25 160.6 287.82 160.6 287.82 149 265.73 149 265.73 202 331.11 202"/><rect class="cls-2" x="271.73" y="143" width="22.09" height="6"/><rect class="cls-2" x="259.73" y="202" width="65.38" height="6"/><polygon class="cls-2" points="404.44 125.75 378.85 125.75 371.88 143 412.1 143 404.44 125.75"/><polygon class="cls-2" points="343.02 214.43 366.43 214.43 368.86 208 345.62 208 343.02 214.43"/><polygon class="cls-2" points="420.07 214.43 443.83 214.43 440.97 208 417.39 208 420.07 214.43"/><polygon class="cls-2" points="371.13 202 373.06 196.91 412.77 196.91 414.89 202 438.31 202 414.77 149 392.79 149 406.31 181.42 378.91 181.42 391.16 149 369.45 149 348.05 202 371.13 202"/><polygon class="cls-2" points="397.16 149 397.93 146.95 398.79 149 420.77 149 418.1 143 377.88 143 375.45 149 397.16 149"/><polygon class="cls-2" points="342.05 202 339.62 208 362.86 208 365.13 202 342.05 202"/><polygon class="cls-2" points="408.89 202 411.39 208 434.97 208 432.31 202 408.89 202"/><polygon class="cls-2" points="526.2 202 526.2 198.18 480.69 198.18 480.69 149 458.6 149 458.6 202 526.2 202"/><rect class="cls-2" x="458.6" y="208" width="67.6" height="6.43"/><rect class="cls-2" x="458.6" y="125.75" width="22.09" height="17.25"/><rect class="cls-2" x="464.6" y="143" width="22.09" height="6"/><rect class="cls-2" x="452.6" y="202" width="67.6" height="6"/><polygon class="cls-2" points="562.31 125.75 543.13 125.75 543.13 143 577.27 143 562.31 125.75"/><rect class="cls-2" x="616.44" y="208" width="22.09" height="6.43"/><rect class="cls-2" x="543.13" y="208" width="22.09" height="6.43"/><polygon class="cls-2" points="565.22 202 565.22 159.07 589.17 186.88 592.49 186.88 616.44 159.07 616.44 202 638.53 202 638.53 149 599.18 149 590.83 158.63 582.48 149 543.13 149 543.13 202 565.22 202"/><polygon class="cls-2" points="638.53 125.75 619.33 125.75 604.38 143 638.53 143 638.53 125.75"/><polygon class="cls-2" points="644.53 149 644.53 143 610.38 143 605.18 149 644.53 149"/><polygon class="cls-2" points="588.48 149 583.27 143 549.13 143 549.13 149 588.48 149"/><rect class="cls-2" x="537.13" y="202" width="22.09" height="6"/><rect class="cls-2" x="610.44" y="202" width="22.09" height="6"/><path class="cls-2" d="M685.26,142.86c2.35-1.34,5.51-2,9.49-2A47.19,47.19,0,0,1,707.56,143h15.31V131.46q-15.81-6.86-30-6.85-15.44,0-24.63,7A22.35,22.35,0,0,0,660,143h25Z"/><path class="cls-2" d="M659,150.07q0,8.82,4.22,14.47a29.71,29.71,0,0,0,10,8.7,124.81,124.81,0,0,0,15.74,6.6q9.94,3.56,12.54,6a7.25,7.25,0,0,1,2.61,5.27q0,8.18-13,8.18a38.89,38.89,0,0,1-14.53-2.73,87,87,0,0,1-15.75-8.7V202h62.42a24.48,24.48,0,0,0,3.6-13.34q0-8.64-4.28-14.29a30.89,30.89,0,0,0-10.19-8.76,137.11,137.11,0,0,0-15.74-6.73q-9.84-3.62-12.38-5.9a7,7,0,0,1-2.46-4H659C659,149.35,659,149.71,659,150.07Z"/><path class="cls-2" d="M692.85,215.57q15.28,0,24.66-7.3l.33-.27H662.72A64.74,64.74,0,0,0,692.85,215.57Z"/><path class="cls-2" d="M687.82,149a4.78,4.78,0,0,1-.08-.84c0-2.13,1.1-3.84,3.29-5.16H666a23.24,23.24,0,0,0-1,6Z"/><path class="cls-2" d="M728.87,148.79V143H713.56A118.92,118.92,0,0,1,728.87,148.79Z"/><path class="cls-2" d="M654.85,207c.63.34,1.25.68,1.87,1h55.12a24.53,24.53,0,0,0,5.43-6H654.85Z"/><path class="cls-2" d="M121.94,143A63.6,63.6,0,0,0,91,135H39.33A27.36,27.36,0,0,1,12,107.67V99H4v8.67A35.37,35.37,0,0,0,39.33,143h82.61Z"/><path class="cls-2" d="M740,192v9.67c0,.11,0,.22,0,.33h8c0-.11,0-.22,0-.33V192a55.89,55.89,0,0,1,20.17-43H756.64A63.71,63.71,0,0,0,740,192Z"/><path class="cls-2" d="M712.67,229H182.33a27.36,27.36,0,0,1-26.58-21h-8.17a35.38,35.38,0,0,0,34.75,29H712.67a35.38,35.38,0,0,0,34.75-29h-8.17A27.36,27.36,0,0,1,712.67,229Z"/><rect class="cls-2" x="877" y="37" width="8" height="56"/><path class="cls-2" d="M155,201.67V199a63.89,63.89,0,0,0-24.12-50H116.17A56,56,0,0,1,147,199v2.67c0,.11,0,.22,0,.33h8C155,201.89,155,201.78,155,201.67Z"/><rect class="cls-2" x="4" y="37" width="8" height="56"/><path class="cls-2" d="M877,100.67A27.36,27.36,0,0,1,849.67,128H804a63.72,63.72,0,0,0-41.11,15h14A55.69,55.69,0,0,1,804,136h45.67A35.37,35.37,0,0,0,885,100.67V99h-8Z"/><path class="cls-2" d="M39.33,8H849.67a27.36,27.36,0,0,1,27,23h8.08A35.38,35.38,0,0,0,849.67,0H39.33A35.38,35.38,0,0,0,4.27,31h8.08A27.36,27.36,0,0,1,39.33,8Z"/><path class="cls-2" d="M18,35.33A26.82,26.82,0,0,1,18.35,31H10.27A36.34,36.34,0,0,0,10,35.33V37h8Z"/><path class="cls-2" d="M883,35.33V37h8V35.33a36.34,36.34,0,0,0-.27-4.33h-8.08A26.82,26.82,0,0,1,883,35.33Z"/><rect class="cls-2" x="873" y="93" width="8" height="6"/><rect class="cls-2" y="93" width="8" height="6"/><path class="cls-2" d="M756.64,149h11.53a57.26,57.26,0,0,1,8.76-6h-14A64.4,64.4,0,0,0,756.64,149Z"/><path class="cls-2" d="M127.94,143H97a55.6,55.6,0,0,1,25.17,6h14.71A64.31,64.31,0,0,0,127.94,143Z"/><path class="cls-2" d="M733.25,208h8.17a34.86,34.86,0,0,0,.57-6h-8A27,27,0,0,1,733.25,208Z"/><path class="cls-2" d="M149,202h-8a34.86,34.86,0,0,0,.57,6h8.17A27,27,0,0,1,149,202Z"/><path d="M99.59,86.65q0-8.62-4.29-14.28a30.79,30.79,0,0,0-10.19-8.76,135.58,135.58,0,0,0-15.74-6.73Q59.53,53.27,57,51a6.54,6.54,0,0,1-2.54-4.82q0-3.3,3.53-5.3c2.35-1.34,5.51-2,9.49-2q10.47,0,28.12,7.93V37H34.43a22.52,22.52,0,0,0-2.7,11.07q0,8.82,4.22,14.47a29.52,29.52,0,0,0,10,8.7,125.66,125.66,0,0,0,15.74,6.6q9.93,3.55,12.54,6a7.26,7.26,0,0,1,2.6,5.27,7.39,7.39,0,0,1-1,3.86h23A28.07,28.07,0,0,0,99.59,86.65Z"/><path d="M33.57,105a65.28,65.28,0,0,0,32,8.57q15.3,0,24.66-7.3A24.24,24.24,0,0,0,96.58,99h-63Z"/><path d="M95.59,29.46q-15.81-6.85-30-6.85-15.42,0-24.63,7-.87.68-1.65,1.38H95.59Z"/><path d="M33.57,85.89V93H45.71A101,101,0,0,1,33.57,85.89Z"/><path d="M101.59,31H45.28a22.63,22.63,0,0,0-4.85,6h61.16Z"/><path d="M71.87,93c-1.73,2.87-5.73,4.32-12,4.32a39,39,0,0,1-14.54-2.73q-1.73-.69-3.6-1.59H29.57v6h63a22.75,22.75,0,0,0,2.3-6Z"/><rect x="184.88" y="99" width="22.09" height="13.43"/><rect x="118.61" y="99" width="22.09" height="13.43"/><rect x="184.88" y="23.75" width="22.09" height="7.25"/><polygon points="184.88 37 184.88 59.36 140.7 59.36 140.7 37 118.61 37 118.61 93 140.7 93 140.7 76.56 184.88 76.56 184.88 93 206.97 93 206.97 37 184.88 37"/><rect x="118.61" y="23.75" width="22.09" height="7.25"/><rect x="190.88" y="31" width="22.09" height="6"/><rect x="124.61" y="31" width="22.09" height="6"/><rect x="180.88" y="93" width="22.09" height="6"/><rect x="114.61" y="93" width="22.09" height="6"/><polygon points="298.85 112.43 322.6 112.43 316.64 99 293.25 99 298.85 112.43"/><polygon points="283.21 23.75 257.62 23.75 254.69 31 286.44 31 283.21 23.75"/><polygon points="221.8 112.43 245.21 112.43 250.28 99 227.22 99 221.8 112.43"/><path d="M252.27,37,229.65,93H314L289.1,37Zm18.44,8,14.37,34.47h-27.4Z"/><polygon points="295.1 37 292.44 31 260.69 31 258.27 37 295.1 37"/><polygon points="225.65 93 223.22 99 246.28 99 247.83 94.91 287.54 94.91 289.25 99 312.64 99 309.97 93 225.65 93"/><rect x="347.59" y="99" width="22.09" height="13.43"/><polygon points="401.8 40 401.8 37 315.47 37 315.47 40 347.59 40 347.59 93 369.68 93 369.68 40 401.8 40"/><rect x="315.47" y="23.75" width="86.33" height="7.25"/><rect x="321.47" y="31" width="86.33" height="6"/><rect x="343.59" y="93" width="22.09" height="6"/><rect x="413.52" y="23.75" width="86.33" height="7.25"/><polygon points="499.85 40 499.85 37 413.52 37 413.52 40 445.64 40 445.64 93 467.73 93 467.73 40 499.85 40"/><rect x="445.64" y="99" width="22.09" height="13.43"/><rect x="419.52" y="31" width="86.33" height="6"/><rect x="441.64" y="93" width="22.09" height="6"/><rect x="518.11" y="99" width="65.38" height="13.43"/><polygon points="580.64 74.85 580.64 58.6 540.2 58.6 540.2 40 582.6 40 582.6 37 518.11 37 518.11 93 540.2 93 540.2 74.85 580.64 74.85"/><rect x="518.11" y="23.75" width="64.49" height="7.25"/><rect x="524.11" y="31" width="64.49" height="6"/><polygon points="536.2 96.18 536.2 93 514.11 93 514.11 99 579.49 99 579.49 96.18 536.2 96.18"/><rect x="604.93" y="99" width="22.09" height="13.43"/><path d="M644.54,23.75H604.93V31h60.32Q657.24,23.76,644.54,23.75Z"/><path d="M658.38,112.43h24.24c-2-4.32-4.14-8.81-6.28-13.43H652.25Q656.51,108.65,658.38,112.43Z"/><path d="M658.31,70.94q15.24-7,15.23-21.69A23.4,23.4,0,0,0,670.25,37H604.93V93H627V76.44h6.34a12,12,0,0,1,8.22,3.49Q645,83,649.59,93h24c-.86-1.88-1.72-3.77-2.59-5.7Q665,74,658.31,70.94ZM647.55,57.55q-3.27,2.64-8.85,2.64H627V40h11.17q12.63,0,12.63,10A9.09,9.09,0,0,1,647.55,57.55Z"/><path d="M676.25,37a26.51,26.51,0,0,0-4.77-5.8l-.23-.2H610.93v6Z"/><path d="M645.59,93q.6,1.31,1.23,2.73c.5,1.14,1,2.23,1.43,3.27h24.09c-.91-2-1.82-4-2.75-6Z"/><rect x="600.93" y="93" width="22.09" height="6"/><rect x="697.71" y="99" width="65.38" height="13.43"/><polygon points="760.23 74.85 760.23 58.6 719.8 58.6 719.8 40 762.2 40 762.2 37 697.71 37 697.71 93 719.8 93 719.8 74.85 760.23 74.85"/><rect x="697.71" y="23.75" width="64.49" height="7.25"/><rect x="703.71" y="31" width="64.49" height="6"/><polygon points="715.8 96.18 715.8 93 693.71 93 693.71 99 759.09 99 759.09 96.18 715.8 96.18"/><path d="M784.4,93h22.09V40h14.15q14.1,0,21.62,7.52t7.52,20.6q0,12.63-7.43,20.34A22.5,22.5,0,0,1,836.17,93H865.8q6.69-10.17,6.7-24.75,0-19-12.32-31.25H784.4Z"/><path d="M784.4,112.43H821q24.76,0,38.12-11.78c.61-.53,1.19-1.09,1.76-1.65H784.4Z"/><path d="M784.4,23.75V31h68.18q-11.77-7.24-29.08-7.25Z"/><path d="M790.4,37h75.78c-.28-.28-.56-.57-.85-.84A41.74,41.74,0,0,0,858.58,31H790.4Z"/><path d="M816.9,96.18H802.49V93H780.4v6h76.5a37.26,37.26,0,0,0,4.9-6H832.17A33.66,33.66,0,0,1,816.9,96.18Z"/><path d="M231.4,214.43h24.24c-1-2.11-2-4.25-3-6.43H228.4C229.67,210.81,230.68,213,231.4,214.43Z"/><path d="M200,178.44h6.35a12,12,0,0,1,8.22,3.49q3.84,3.48,9.23,15.8,1,2.28,1.88,4.27h24.1Q247,195.83,244,189.3q-6-13.32-12.7-16.36,15.24-7,15.24-21.69c0-.76,0-1.51-.1-2.25h-23a12.48,12.48,0,0,1,.35,3,9.09,9.09,0,0,1-3.27,7.52q-3.27,2.64-8.85,2.64H200V149H178v53H200Z"/><path d="M200,142h11.17a19.53,19.53,0,0,1,6.71,1h27.25a24.7,24.7,0,0,0-6.66-9.8q-8.07-7.45-20.95-7.45H178V143H200Z"/><rect x="177.95" y="208" width="22.09" height="6.43"/><rect x="183.95" y="143" width="22.09" height="6"/><path d="M229.49,149h23a23.33,23.33,0,0,0-1.3-6H223.92A8.27,8.27,0,0,1,229.49,149Z"/><rect x="171.95" y="202" width="22.09" height="6"/><path d="M219.72,202q1.5,3.39,2.68,6h24.22q-1.4-3-2.8-6Z"/><rect x="270.73" y="208" width="65.38" height="6.43"/><polygon points="292.82 142 335.22 142 335.22 125.75 270.73 125.75 270.73 143 292.82 143 292.82 142"/><polygon points="336.11 202 336.11 198.18 292.82 198.18 292.82 176.85 333.25 176.85 333.25 160.6 292.82 160.6 292.82 149 270.73 149 270.73 202 336.11 202"/><rect x="276.73" y="143" width="22.09" height="6"/><rect x="264.73" y="202" width="65.38" height="6"/><polygon points="409.44 125.75 383.85 125.75 376.88 143 417.1 143 409.44 125.75"/><polygon points="348.02 214.43 371.43 214.43 373.86 208 350.62 208 348.02 214.43"/><polygon points="425.07 214.43 448.83 214.43 445.97 208 422.39 208 425.07 214.43"/><polygon points="376.13 202 378.06 196.91 417.77 196.91 419.89 202 443.31 202 419.77 149 397.79 149 411.31 181.42 383.91 181.42 396.16 149 374.45 149 353.05 202 376.13 202"/><polygon points="402.16 149 402.93 146.95 403.79 149 425.77 149 423.1 143 382.88 143 380.45 149 402.16 149"/><polygon points="347.05 202 344.62 208 367.86 208 370.13 202 347.05 202"/><polygon points="413.89 202 416.39 208 439.97 208 437.31 202 413.89 202"/><polygon points="531.2 202 531.2 198.18 485.69 198.18 485.69 149 463.6 149 463.6 202 531.2 202"/><rect x="463.6" y="208" width="67.6" height="6.43"/><rect x="463.6" y="125.75" width="22.09" height="17.25"/><rect x="469.6" y="143" width="22.09" height="6"/><rect x="457.6" y="202" width="67.6" height="6"/><polygon points="567.31 125.75 548.13 125.75 548.13 143 582.27 143 567.31 125.75"/><rect x="621.44" y="208" width="22.09" height="6.43"/><rect x="548.13" y="208" width="22.09" height="6.43"/><polygon points="570.22 202 570.22 159.07 594.17 186.88 597.49 186.88 621.44 159.07 621.44 202 643.53 202 643.53 149 604.18 149 595.83 158.63 587.48 149 548.13 149 548.13 202 570.22 202"/><polygon points="643.53 125.75 624.33 125.75 609.38 143 643.53 143 643.53 125.75"/><polygon points="649.53 149 649.53 143 615.38 143 610.18 149 649.53 149"/><polygon points="593.48 149 588.27 143 554.13 143 554.13 149 593.48 149"/><rect x="542.13" y="202" width="22.09" height="6"/><rect x="615.44" y="202" width="22.09" height="6"/><path d="M690.26,142.86c2.35-1.34,5.51-2,9.49-2A47.19,47.19,0,0,1,712.56,143h15.31V131.46q-15.81-6.86-30-6.85-15.44,0-24.63,7A22.35,22.35,0,0,0,665,143h25Z"/><path d="M664,150.07q0,8.82,4.22,14.47a29.71,29.71,0,0,0,10,8.7,124.81,124.81,0,0,0,15.74,6.6q9.94,3.56,12.54,6a7.25,7.25,0,0,1,2.61,5.27q0,8.18-13,8.18a38.89,38.89,0,0,1-14.53-2.73,87,87,0,0,1-15.75-8.7V202h62.42a24.48,24.48,0,0,0,3.6-13.34q0-8.64-4.28-14.29a30.89,30.89,0,0,0-10.19-8.76,137.11,137.11,0,0,0-15.74-6.73q-9.84-3.62-12.38-5.9a7,7,0,0,1-2.46-4H664C664,149.35,664,149.71,664,150.07Z"/><path d="M697.85,215.57q15.28,0,24.66-7.3l.33-.27H667.72A64.74,64.74,0,0,0,697.85,215.57Z"/><path d="M692.82,149a4.78,4.78,0,0,1-.08-.84c0-2.13,1.1-3.84,3.29-5.16H671a23.24,23.24,0,0,0-1,6Z"/><path d="M733.87,148.79V143H718.56A118.92,118.92,0,0,1,733.87,148.79Z"/><path d="M659.85,207c.63.34,1.25.68,1.87,1h55.12a24.53,24.53,0,0,0,5.43-6H659.85Z"/><path d="M126.94,143A63.6,63.6,0,0,0,96,135H44.33A27.36,27.36,0,0,1,17,107.67V99H9v8.67A35.37,35.37,0,0,0,44.33,143h82.61Z"/><path d="M745,192v9.67c0,.11,0,.22,0,.33h8c0-.11,0-.22,0-.33V192a55.89,55.89,0,0,1,20.17-43H761.64A63.71,63.71,0,0,0,745,192Z"/><path d="M717.67,229H187.33a27.36,27.36,0,0,1-26.58-21h-8.17a35.38,35.38,0,0,0,34.75,29H717.67a35.38,35.38,0,0,0,34.75-29h-8.17A27.36,27.36,0,0,1,717.67,229Z"/><rect x="882" y="37" width="8" height="56"/><path d="M160,201.67V199a63.89,63.89,0,0,0-24.12-50H121.17A56,56,0,0,1,152,199v2.67c0,.11,0,.22,0,.33h8C160,201.89,160,201.78,160,201.67Z"/><rect x="9" y="37" width="8" height="56"/><path d="M882,100.67A27.36,27.36,0,0,1,854.67,128H809a63.72,63.72,0,0,0-41.11,15h14A55.69,55.69,0,0,1,809,136h45.67A35.37,35.37,0,0,0,890,100.67V99h-8Z"/><path d="M44.33,8H854.67a27.36,27.36,0,0,1,27,23h8.08A35.38,35.38,0,0,0,854.67,0H44.33A35.38,35.38,0,0,0,9.27,31h8.08A27.36,27.36,0,0,1,44.33,8Z"/><path d="M23,35.33A26.82,26.82,0,0,1,23.35,31H15.27A36.34,36.34,0,0,0,15,35.33V37h8Z"/><path d="M888,35.33V37h8V35.33a36.34,36.34,0,0,0-.27-4.33h-8.08A26.82,26.82,0,0,1,888,35.33Z"/><rect x="878" y="93" width="8" height="6"/><rect x="5" y="93" width="8" height="6"/><path d="M761.64,149h11.53a57.26,57.26,0,0,1,8.76-6h-14A64.4,64.4,0,0,0,761.64,149Z"/><path d="M132.94,143H102a55.6,55.6,0,0,1,25.17,6h14.71A64.31,64.31,0,0,0,132.94,143Z"/><path d="M738.25,208h8.17a34.86,34.86,0,0,0,.57-6h-8A27,27,0,0,1,738.25,208Z"/><path d="M154,202h-8a34.86,34.86,0,0,0,.57,6h8.17A27,27,0,0,1,154,202Z"/></g></g></svg>